<svg width="48" height="48" viewBox="0 0 48 48" fill="none" xmlns="http://www.w3.org/2000/svg">
<g clip-path="url(#clip0_1_12)">
<path d="M23.9128 0.000239157C16.8354 0.0327832 9.93379 3.198 5.32013 8.9291L12.7101 20.2878C14.5783 14.9616 19.9373 11.5577 25.5417 12.1253L45.4198 13.1843C43.3883 9.15101 40.1997 5.64355 35.9975 3.21749C32.1852 1.01645 28.0194 -0.0186728 23.9128 0.000239157ZM3.9192 10.858C1.44202 14.634 0 19.1492 0 24.0016C0 35.99 8.7959 45.9277 20.2846 47.7134L26.4252 35.6348C20.8784 36.6799 15.2517 33.7392 12.9411 28.6018L3.9192 10.858ZM46.3902 15.3622L32.8581 16.0821C36.5367 20.3632 36.8043 26.7063 33.5106 31.2761L22.6543 47.9609C27.163 48.2182 31.7951 47.2103 35.9974 44.7841C46.3796 38.79 50.588 26.2044 46.3901 15.3622L46.3902 15.3622ZM23.9983 15.9081C19.529 15.9081 15.9048 19.5323 15.9048 24.0015C15.9048 28.4708 19.529 32.095 23.9983 32.095C28.4676 32.095 32.0917 28.4708 32.0917 24.0015C32.0917 19.5323 28.4676 15.9081 23.9983 15.9081Z" fill="black"/>
</g>
<defs>
<clipPath id="clip0_1_12">
<rect width="48" height="48" fill="white"/>
</clipPath>
</defs>
</svg>
