<svg width="48" height="48" viewBox="0 0 48 48" fill="none" xmlns="http://www.w3.org/2000/svg">
<g clip-path="url(#clip0_1_14)">
<path d="M24.1875 48C19.1339 48 14.6295 46.6318 10.6741 43.8955C6.71875 41.1591 3.77678 37.5364 1.84821 33.0273C0.812496 30.6455 0.214282 27.9091 0.0535673 24.8182C-0.107147 21.7273 0.124996 18.7045 0.749996 15.75C1.375 12.7955 2.36607 9.95909 3.72321 7.24091C5.08035 4.52273 6.67857 2.31818 8.51785 0.627274L8.22321 8.29091C8.41964 8.03636 9.02678 7.89546 10.0446 7.86818C11.0625 7.84091 11.6875 7.98182 11.9196 8.29091C12.6696 6.81818 14.1027 5.56364 16.2187 4.52727C18.3348 3.49091 20.4286 2.95455 22.5 2.91818C21.5357 3.73636 20.4687 5.08636 19.2991 6.96818C18.1295 8.85 17.6071 10.3364 17.7321 11.4273C18.1786 11.5727 18.7366 11.6955 19.4062 11.7955C20.0759 11.8955 20.6384 11.9636 21.0937 12C21.5491 12.0364 22.1562 12.0727 22.9152 12.1091C23.6741 12.1455 24.125 12.1727 24.2679 12.1909C24.5357 12.2818 24.6205 12.6955 24.5223 13.4318C24.4241 14.1682 24.1518 14.8545 23.7054 15.4909C23.6161 15.6182 23.4687 15.7864 23.2634 15.9955C23.058 16.2045 22.5536 16.5273 21.75 16.9636C20.9464 17.4 20.0446 17.7091 19.0446 17.8909L19.4464 23.0455L15.7232 21.2182C15.4018 22 15.3348 22.7409 15.5223 23.4409C15.7098 24.1409 16.0312 24.7455 16.4866 25.2545C16.942 25.7636 17.5268 26.1409 18.2411 26.3864C18.9554 26.6318 19.6786 26.6909 20.4107 26.5636C21.3214 26.4 22.1964 26.0864 23.0357 25.6227C23.875 25.1591 24.6205 24.75 25.2723 24.3955C25.9241 24.0409 26.5804 23.8818 27.2411 23.9182C28.3304 23.9909 29.1295 24.2909 29.6384 24.8182C30.1473 25.3455 30.3214 25.9364 30.1607 26.5909C30.1429 26.6273 30.1205 26.6773 30.0937 26.7409C30.067 26.8045 29.9911 26.9182 29.8661 27.0818C29.7411 27.2455 29.5804 27.3864 29.3839 27.5045C29.1875 27.6227 28.9062 27.7182 28.5402 27.7909C28.1741 27.8636 27.7589 27.8727 27.2946 27.8182C26.2232 29.5455 24.933 30.7773 23.4241 31.5136C21.9152 32.25 20.0446 32.5182 17.8125 32.3182C19.1339 33.4273 20.5848 34.1773 22.1652 34.5682C23.7455 34.9591 25.25 35.0136 26.6786 34.7318C28.1071 34.45 29.4866 33.9773 30.817 33.3136C32.1473 32.65 33.2902 31.8545 34.2455 30.9273C35.2009 30 35.9196 29.0545 36.4018 28.0909C37.1696 26.4364 37.5179 24.6864 37.4464 22.8409C37.375 20.9955 37.0402 19.2818 36.442 17.7C35.8437 16.1182 35.1429 14.9818 34.3393 14.2909C35.8929 14.9818 37.1161 15.7045 38.0089 16.4591C38.9018 17.2136 39.5893 18.2364 40.0714 19.5273C40.3393 16.4364 39.8259 13.3182 38.5312 10.1727C37.2366 7.02727 35.3661 4.44546 32.9196 2.42727C37.6518 3.82727 41.3304 6.36818 43.9554 10.05C46.5804 13.7318 47.9286 18.4364 48 24.1636C48.0357 26.4727 47.6741 28.7909 46.9152 31.1182C46.1562 33.4455 45.0536 35.6091 43.6071 37.6091C42.1607 39.6091 40.4732 41.3909 38.5446 42.9545C36.6161 44.5182 34.4062 45.75 31.9152 46.65C29.4241 47.55 26.8482 48 24.1875 48Z" fill="black"/>
</g>
<defs>
<clipPath id="clip0_1_14">
<rect width="48" height="48" fill="white"/>
</clipPath>
</defs>
</svg>
