<svg width="48" height="48" viewBox="0 0 48 48" fill="none" xmlns="http://www.w3.org/2000/svg">
<path fill-rule="evenodd" clip-rule="evenodd" d="M15 6C13.3431 6 12 7.34315 12 9C12 10.6569 13.3431 12 15 12C16.6569 12 18 10.6569 18 9C18 7.34315 16.6569 6 15 6ZM9 9C9 5.68629 11.6863 3 15 3C18.3137 3 21 5.68629 21 9C21 12.3137 18.3137 15 15 15C11.6863 15 9 12.3137 9 9Z" fill="black"/>
<path fill-rule="evenodd" clip-rule="evenodd" d="M15 36C13.3431 36 12 37.3431 12 39C12 40.6569 13.3431 42 15 42C16.6569 42 18 40.6569 18 39C18 37.3431 16.6569 36 15 36ZM9 39C9 35.6863 11.6863 33 15 33C18.3137 33 21 35.6863 21 39C21 42.3137 18.3137 45 15 45C11.6863 45 9 42.3137 9 39Z" fill="black"/>
<path fill-rule="evenodd" clip-rule="evenodd" d="M15 12C15.8284 12 16.5 12.6716 16.5 13.5V34.5C16.5 35.3284 15.8284 36 15 36C14.1716 36 13.5 35.3284 13.5 34.5V13.5C13.5 12.6716 14.1716 12 15 12Z" fill="black"/>
<path fill-rule="evenodd" clip-rule="evenodd" d="M33 12C31.3431 12 30 13.3431 30 15C30 16.6569 31.3431 18 33 18C34.6569 18 36 16.6569 36 15C36 13.3431 34.6569 12 33 12ZM27 15C27 11.6863 29.6863 9 33 9C36.3137 9 39 11.6863 39 15C39 18.3137 36.3137 21 33 21C29.6863 21 27 18.3137 27 15Z" fill="black"/>
<path fill-rule="evenodd" clip-rule="evenodd" d="M33 18C33.8284 18 34.5 18.6716 34.5 19.5C34.5 22.9632 33.1561 25.2238 31.0314 26.6698C29.0577 28.013 26.507 28.5724 24.3059 29.031C24.1864 29.0559 24.0678 29.0805 23.9502 29.1049C21.7552 29.5608 19.9147 29.9431 18.5548 30.7175C17.8811 31.1011 17.3915 31.5497 17.0609 32.1027C16.7316 32.6536 16.5 33.4082 16.5 34.5C16.5 35.3284 15.8284 36 15 36C14.1716 36 13.5 35.3284 13.5 34.5C13.5 32.9668 13.8309 31.6589 14.486 30.5633C15.1397 29.4698 16.0564 28.6879 17.0702 28.1106C18.8627 27.0899 21.1592 26.6167 23.191 26.1981C23.3607 26.1631 23.5285 26.1285 23.6941 26.094C25.993 25.6151 27.9423 25.1432 29.3436 24.1896C30.5939 23.3387 31.5 22.0368 31.5 19.5C31.5 18.6716 32.1716 18 33 18Z" fill="black"/>
</svg>
