<svg width="48" height="48" viewBox="0 0 48 48" fill="none" xmlns="http://www.w3.org/2000/svg">
<path d="M23.9531 1.40625C11.5781 1.40625 1.45312 11.5312 1.45312 23.9062C1.45312 36.2812 11.5781 46.4062 23.9531 46.4062C31.9594 46.4062 39.0281 42.1688 43.0125 35.8219C43.0887 35.7013 43.1228 35.5588 43.1092 35.4167C43.0957 35.2747 43.0354 35.1412 42.9378 35.0371C42.8402 34.933 42.7108 34.8643 42.5699 34.8418C42.429 34.8192 42.2846 34.8441 42.1594 34.9125C41.6108 35.2345 41.0333 35.5045 40.4344 35.7188C36.9844 36.9 35.0813 36.9469 32.7375 36.8438C30.1219 36.7312 26.9344 35.8312 24.6937 34.5C22.4531 33.1688 20.6156 31.2563 19.6219 29.5969C18.6281 27.9375 18.0281 25.8562 18.3 23.1937C18.5719 20.475 21.0563 18.2625 23.9625 18.2625C27.1031 18.2625 29.6625 20.7562 29.6625 23.8969C29.6625 25.4906 28.9031 26.8687 27.9281 27.975C27.7125 28.1719 27.2156 28.8844 28.4719 29.85C29.9625 30.9937 33.3094 31.5375 35.9625 31.4062C38.6156 31.275 41.5031 30.225 43.4812 28.1438C45.0562 26.4844 46.4625 23.8219 46.4625 20.8875C46.4531 9.15938 35.5781 1.40625 23.9531 1.40625Z" fill="black"/>
</svg>
