<svg width="48" height="48" viewBox="0 0 48 48" fill="none" xmlns="http://www.w3.org/2000/svg">
<g clip-path="url(#clip0_1_35)">
<path d="M43.72 35.72C43.9067 35.72 44.0733 35.8 44.22 35.96C44.3533 36.1333 44.42 36.3 44.42 36.46C44.42 36.62 44.3467 36.84 44.2 37.12L43.56 38.04L42.7 39.1L41.82 40.1C41.54 40.4333 41.2867 40.7133 41.06 40.94L40.62 41.4C39.8467 42.1067 38.9533 42.8 37.94 43.48C36.9267 44.16 35.86 44.7667 34.74 45.3C33.5933 45.8333 32.4333 46.26 31.26 46.58C30.0867 46.9 28.9733 47.06 27.92 47.06C26.72 47.06 25.5933 46.8733 24.54 46.5C23.4733 46.1267 22.4867 45.6067 21.58 44.94C20.6733 44.2733 19.86 43.4933 19.14 42.6C18.4333 41.72 17.82 40.76 17.3 39.72C16.7933 38.6933 16.4067 37.6267 16.14 36.52C15.8733 35.4133 15.74 34.3 15.74 33.18C15.74 31.8467 15.9533 30.54 16.38 29.26C16.82 27.9667 17.4 26.7667 18.12 25.66C18.3067 26.9267 18.6733 28.1067 19.22 29.2C19.7667 30.2933 20.4467 31.2933 21.26 32.2C22.06 33.1067 22.98 33.9133 24.02 34.62C25.06 35.34 26.1533 35.94 27.3 36.42C28.4467 36.9 29.6267 37.2733 30.84 37.54C32.0667 37.8067 33.2667 37.94 34.44 37.94C35.9333 37.94 37.3867 37.78 38.8 37.46C40.2133 37.1533 41.5867 36.6733 42.92 36.02L43.32 35.82L43.72 35.72ZM12.72 33.18C12.72 34.6467 12.9 36.08 13.26 37.48C13.62 38.8933 14.14 40.2467 14.82 41.54C15.5 42.82 16.3267 44 17.3 45.08C18.2867 46.1733 19.3933 47.1067 20.62 47.88C18.66 47.6133 16.7933 47.12 15.02 46.4C13.2467 45.6667 11.5933 44.7533 10.06 43.66C8.52667 42.5533 7.14 41.2867 5.9 39.86C4.67333 38.4333 3.62 36.88 2.74 35.2C1.86 33.52 1.18667 31.7467 0.72 29.88C0.24 28.0133 0 26.0933 0 24.12C0 23.04 0.213333 22.0467 0.64 21.14C1.05333 20.2333 1.60667 19.4133 2.3 18.68C3.00667 17.9467 3.80667 17.3067 4.7 16.76C5.58 16.2267 6.48 15.7867 7.4 15.44C8.38667 15.08 9.38667 14.82 10.4 14.66C11.44 14.5 12.4733 14.42 13.5 14.42C14.4333 14.42 15.38 14.4867 16.34 14.62C17.3 14.78 18.2333 15.0133 19.14 15.32C20.0467 15.6267 20.9267 16.0067 21.78 16.46C22.62 16.9267 23.3933 17.48 24.1 18.12C23.6333 18.12 23.1667 18.1667 22.7 18.26C22.26 18.3533 21.8267 18.5067 21.4 18.72V18.68C20.56 19.0533 19.76 19.5467 19 20.16C18.24 20.7733 17.54 21.4667 16.9 22.24C16.26 23.0133 15.68 23.8533 15.16 24.76C14.6533 25.6533 14.22 26.58 13.86 27.54C13.5 28.4867 13.22 29.4467 13.02 30.42C12.82 31.38 12.72 32.3 12.72 33.18ZM23.92 0.120003C26.1867 0.120003 28.4067 0.380003 30.58 0.900003C32.7533 1.40667 34.8 2.17334 36.72 3.2C38.6267 4.22667 40.3733 5.51334 41.96 7.06C43.5333 8.60667 44.8533 10.4067 45.92 12.46C46.5733 13.7133 47.08 15.02 47.44 16.38C47.8133 17.7133 48 19.1 48 20.54C48 21.7267 47.8467 22.86 47.54 23.94C47.22 25.0067 46.76 25.9933 46.16 26.9C45.56 27.8067 44.8267 28.62 43.96 29.34C43.1067 30.0467 42.14 30.6333 41.06 31.1C40.34 31.42 39.6 31.66 38.84 31.82C38.0667 31.9933 37.2933 32.08 36.52 32.08C35.96 32.08 35.3133 32.06 34.58 32.02C33.86 31.98 33.1267 31.9 32.38 31.78C31.6467 31.6467 30.9467 31.46 30.28 31.22C29.6133 30.9667 29.0533 30.6333 28.6 30.22C28.44 30.1 28.2867 29.94 28.14 29.74C28.0067 29.5267 27.94 29.3067 27.94 29.08C27.94 28.88 28.0467 28.6467 28.26 28.38C28.4733 28.1133 28.7067 27.78 28.96 27.38C29.2267 27.0067 29.4667 26.5533 29.68 26.02C29.8933 25.4867 30 24.8533 30 24.12C30 22.7067 29.7333 21.4 29.2 20.2C28.6667 18.9867 27.96 17.8933 27.08 16.92C26.2 15.9333 25.1867 15.08 24.04 14.36C22.8933 13.6267 21.7 13.0333 20.46 12.58C19.34 12.18 18.1933 11.8867 17.02 11.7C15.86 11.5133 14.6867 11.42 13.5 11.42C11.4333 11.42 9.39333 11.72 7.38 12.32C5.36667 12.92 3.53333 13.8467 1.88 15.1C2.82667 12.78 4.03333 10.6933 5.5 8.84C6.96667 7 8.64667 5.43334 10.54 4.14C12.42 2.84667 14.4867 1.85334 16.74 1.16C19.0067 0.466669 21.3933 0.120003 23.9 0.120003H23.92Z" fill="black"/>
</g>
<defs>
<clipPath id="clip0_1_35">
<rect width="48" height="48" fill="white"/>
</clipPath>
</defs>
</svg>
