<svg width="48" height="48" viewBox="0 0 48 48" fill="none" xmlns="http://www.w3.org/2000/svg">
<g clip-path="url(#clip0_1_31)">
<path d="M39.9911 6.10714C37.0446 4.14286 33.8393 3.16071 30.375 3.16071C27.6071 3.16071 24.9911 3.8125 22.5268 5.11607C20.0625 6.41964 17.9196 8.20536 16.0982 10.4732C14.7589 12.1339 13.692 14.0804 12.8973 16.3125C12.1027 18.5446 11.6696 20.9196 11.5982 23.4375V24.5625C11.6696 27.0804 12.1027 29.4554 12.8973 31.6875C13.692 33.9196 14.7589 35.8661 16.0982 37.5268C17.9196 39.7946 20.0625 41.5804 22.5268 42.8839C24.9911 44.1875 27.6071 44.8393 30.375 44.8393C33.8393 44.8393 37.0446 43.8571 39.9911 41.8929C37.8304 43.8214 35.3795 45.3214 32.6384 46.3929C29.8973 47.4643 27.0179 48 24 48C23.4821 48 23.0982 47.9911 22.8482 47.9732C19.7232 47.8304 16.75 47.0982 13.9286 45.7768C11.1071 44.4554 8.67857 42.7321 6.64286 40.6071C4.60714 38.4821 2.99107 35.9732 1.79464 33.0804C0.598214 30.1875 0 27.1607 0 24C0 20.75 0.633929 17.6429 1.90179 14.6786C3.16964 11.7143 4.875 9.16071 7.01786 7.01786C9.16071 4.875 11.7143 3.16964 14.6786 1.90179C17.6429 0.633929 20.75 0 24 0H24.0804C27.0804 0.0178571 29.942 0.558036 32.6652 1.62054C35.3884 2.68304 37.8304 4.17857 39.9911 6.10714ZM48 24C48 27.4286 47.3125 30.6652 45.9375 33.7098C44.5625 36.7545 42.6607 39.4018 40.2321 41.6518C38.375 42.7768 36.3929 43.3393 34.2857 43.3393C31.8393 43.3393 29.5625 42.5893 27.4554 41.0893C30.2054 40.0893 32.4688 38.0089 34.2455 34.8482C36.0223 31.6875 36.9107 28.0714 36.9107 24C36.9107 19.9464 36.0268 16.3393 34.2589 13.1786C32.4911 10.0179 30.2321 7.92857 27.4821 6.91071C29.6071 5.42857 31.875 4.6875 34.2857 4.6875C36.4107 4.6875 38.4286 5.26786 40.3393 6.42857C42.75 8.66071 44.6295 11.2946 45.9777 14.3304C47.3259 17.3661 48 20.5893 48 24Z" fill="black"/>
</g>
<defs>
<clipPath id="clip0_1_31">
<rect width="48" height="48" fill="white"/>
</clipPath>
</defs>
</svg>
