<svg width="48" height="48" viewBox="0 0 48 48" fill="none" xmlns="http://www.w3.org/2000/svg">
<g clip-path="url(#clip0_1_27)">
<path d="M25.4196 23.9196C25.4196 24.3839 25.2723 24.7857 24.9777 25.125C24.683 25.4643 24.3125 25.6339 23.8661 25.6339C23.4018 25.6339 23 25.4866 22.6607 25.192C22.3214 24.8973 22.1518 24.5268 22.1518 24.0804C22.1518 23.6161 22.3036 23.2143 22.6071 22.875C22.9107 22.5357 23.2857 22.3661 23.7321 22.3661C24.1786 22.3661 24.5714 22.5134 24.9107 22.808C25.25 23.1027 25.4196 23.4732 25.4196 23.9196ZM25.8214 25.4732L35.1964 9.91071C35.0357 10.0536 34.433 10.6116 33.3884 11.5848C32.3438 12.558 31.2232 13.5982 30.0268 14.7054C28.8304 15.8125 27.6116 16.9464 26.3705 18.1071C25.1295 19.2679 24.0848 20.2545 23.2366 21.067C22.3884 21.8795 21.9375 22.3393 21.8839 22.4464L12.5357 37.9821C12.6607 37.8571 13.2589 37.3036 14.3304 36.3214C15.4018 35.3393 16.5268 34.2991 17.7054 33.2009C18.8839 32.1027 20.0982 30.9688 21.3482 29.7991C22.5982 28.6295 23.6429 27.6384 24.4821 26.8259C25.3214 26.0134 25.7679 25.5625 25.8214 25.4732ZM43.1518 24C43.1518 27.5893 42.2232 30.9018 40.3661 33.9375C40.3125 33.9018 40.1607 33.8036 39.9107 33.6429C39.6607 33.4821 39.4241 33.3348 39.2009 33.2009C38.9777 33.067 38.8304 33 38.7589 33C38.5268 33 38.4107 33.1161 38.4107 33.3482C38.4107 33.5268 38.9375 33.9196 39.9911 34.5268C38.6696 36.5268 37.0223 38.2277 35.0491 39.6295C33.0759 41.0313 30.9196 42.0179 28.5804 42.5893L28.1518 40.7946C28.1339 40.6161 28 40.5268 27.75 40.5268C27.6607 40.5268 27.5893 40.5759 27.5357 40.6741C27.4821 40.7723 27.4643 40.8571 27.4821 40.9286L27.9107 42.75C26.625 43.0179 25.3214 43.1518 24 43.1518C20.4464 43.1518 17.125 42.2143 14.0357 40.3393C14.0536 40.3036 14.1696 40.1205 14.3839 39.7902C14.5982 39.4598 14.7902 39.1607 14.9598 38.8929C15.1295 38.625 15.2143 38.4554 15.2143 38.3839C15.2143 38.1518 15.0982 38.0357 14.8661 38.0357C14.7589 38.0357 14.6071 38.1652 14.4107 38.4241C14.2143 38.683 14.0134 38.9911 13.808 39.3482C13.6027 39.7054 13.4821 39.9107 13.4464 39.9643C11.4286 38.625 9.71429 36.9509 8.30357 34.942C6.89286 32.933 5.91071 30.75 5.35714 28.3929L7.20536 27.9911C7.38393 27.9375 7.47321 27.8036 7.47321 27.5893C7.47321 27.5 7.42411 27.4286 7.32589 27.375C7.22768 27.3214 7.13393 27.3036 7.04464 27.3214L5.22321 27.7232C4.97321 26.4375 4.84821 25.1964 4.84821 24C4.84821 20.3214 5.82143 16.9375 7.76786 13.8482C7.80357 13.8661 7.96875 13.9732 8.26339 14.1696C8.55804 14.3661 8.82589 14.5357 9.06696 14.6786C9.30804 14.8214 9.46429 14.8929 9.53571 14.8929C9.76786 14.8929 9.88393 14.7857 9.88393 14.5714C9.88393 14.4643 9.77232 14.3259 9.54911 14.1563C9.32589 13.9866 9.03571 13.7946 8.67857 13.5804L8.14286 13.2589C9.51786 11.2589 11.2054 9.57143 13.2054 8.19643C15.2054 6.82143 17.3839 5.86607 19.7411 5.33036L20.1429 7.125C20.1786 7.30357 20.3125 7.39286 20.5446 7.39286C20.6339 7.39286 20.7054 7.34375 20.7589 7.24554C20.8125 7.14732 20.8304 7.05357 20.8125 6.96429L20.4107 5.19643C21.6786 4.96429 22.875 4.84821 24 4.84821C27.6429 4.84821 31.0268 5.82143 34.1518 7.76786C33.4554 8.76786 33.1071 9.34821 33.1071 9.50893C33.1071 9.74107 33.2143 9.85714 33.4286 9.85714C33.625 9.85714 34.0536 9.28571 34.7143 8.14286C36.6964 9.48214 38.3705 11.1429 39.7366 13.125C41.1027 15.1071 42.0625 17.2589 42.6161 19.5804L41.1161 19.9018C40.9375 19.9375 40.8482 20.0804 40.8482 20.3304C40.8482 20.4196 40.8973 20.4911 40.9955 20.5446C41.0938 20.5982 41.1786 20.6161 41.25 20.5982L42.7768 20.25C43.0268 21.5357 43.1518 22.7857 43.1518 24ZM45.4286 24C45.4286 21.0893 44.8616 18.3125 43.7277 15.6696C42.5938 13.0268 41.0714 10.75 39.1607 8.83929C37.25 6.92857 34.9732 5.40625 32.3304 4.27232C29.6875 3.13839 26.9107 2.57143 24 2.57143C21.0893 2.57143 18.3125 3.13839 15.6696 4.27232C13.0268 5.40625 10.75 6.92857 8.83929 8.83929C6.92857 10.75 5.40625 13.0268 4.27232 15.6696C3.13839 18.3125 2.57143 21.0893 2.57143 24C2.57143 26.9107 3.13839 29.6875 4.27232 32.3304C5.40625 34.9732 6.92857 37.25 8.83929 39.1607C10.75 41.0714 13.0268 42.5938 15.6696 43.7277C18.3125 44.8616 21.0893 45.4286 24 45.4286C26.9107 45.4286 29.6875 44.8616 32.3304 43.7277C34.9732 42.5938 37.25 41.0714 39.1607 39.1607C41.0714 37.25 42.5938 34.9732 43.7277 32.3304C44.8616 29.6875 45.4286 26.9107 45.4286 24ZM48 24C48 27.25 47.3661 30.3571 46.0982 33.3214C44.8304 36.2857 43.125 38.8393 40.9821 40.9821C38.8393 43.125 36.2857 44.8304 33.3214 46.0982C30.3571 47.3661 27.25 48 24 48C20.75 48 17.6429 47.3661 14.6786 46.0982C11.7143 44.8304 9.16071 43.125 7.01786 40.9821C4.875 38.8393 3.16964 36.2857 1.90179 33.3214C0.633929 30.3571 0 27.25 0 24C0 20.75 0.633929 17.6429 1.90179 14.6786C3.16964 11.7143 4.875 9.16071 7.01786 7.01786C9.16071 4.875 11.7143 3.16964 14.6786 1.90179C17.6429 0.633929 20.75 0 24 0C27.25 0 30.3571 0.633929 33.3214 1.90179C36.2857 3.16964 38.8393 4.875 40.9821 7.01786C43.125 9.16071 44.8304 11.7143 46.0982 14.6786C47.3661 17.6429 48 20.75 48 24Z" fill="black"/>
</g>
<defs>
<clipPath id="clip0_1_27">
<rect width="48" height="48" fill="white"/>
</clipPath>
</defs>
</svg>
