<svg width="48" height="48" viewBox="0 0 48 48" fill="none" xmlns="http://www.w3.org/2000/svg">
    <path
        d="M24 28.4267C24.4597 28.4267 24.9006 28.244 25.2257 27.919C25.5507 27.5939 25.7333 27.153 25.7333 26.6933V18.6667C25.7333 18.207 25.5507 17.7661 25.2257 17.441C24.9006 17.116 24.4597 16.9333 24 16.9333C23.5403 16.9333 23.0994 17.116 22.7743 17.441C22.4493 17.7661 22.2667 18.207 22.2667 18.6667V26.6667C22.2631 26.8965 22.3054 27.1248 22.3909 27.3382C22.4764 27.5516 22.6035 27.7458 22.7648 27.9096C22.9261 28.0734 23.1184 28.2035 23.3305 28.2922C23.5425 28.381 23.7701 28.4267 24 28.4267Z"
        fill="black" />
    <path
        d="M23.9333 34.36C25.0379 34.36 25.9333 33.4646 25.9333 32.36C25.9333 31.2554 25.0379 30.36 23.9333 30.36C22.8288 30.36 21.9333 31.2554 21.9333 32.36C21.9333 33.4646 22.8288 34.36 23.9333 34.36Z"
        fill="black" />
    <path
        d="M40.44 34.0533L27.4533 10.1333C27.1095 9.50162 26.6017 8.97429 25.9834 8.60687C25.3651 8.23945 24.6592 8.04553 23.94 8.04553C23.2208 8.04553 22.5149 8.23945 21.8966 8.60687C21.2783 8.97429 20.7705 9.50162 20.4267 10.1333L7.42667 34.0533C7.08641 34.6641 6.91217 35.3533 6.92132 36.0524C6.93047 36.7515 7.12268 37.436 7.47881 38.0376C7.83493 38.6392 8.34253 39.137 8.95099 39.4813C9.55946 39.8257 10.2475 40.0045 10.9467 40H36.92C37.6134 40.0006 38.295 39.821 38.8981 39.4787C39.5011 39.1365 40.0048 38.6434 40.3598 38.0477C40.7147 37.4521 40.9088 36.7744 40.9228 36.0811C40.9369 35.3879 40.7705 34.7029 40.44 34.0933V34.0533ZM38.0667 36.64C37.9487 36.839 37.7809 37.0039 37.5798 37.1185C37.3788 37.233 37.1514 37.2933 36.92 37.2933H10.9467C10.7149 37.294 10.487 37.2342 10.2854 37.1199C10.0838 37.0055 9.91543 36.8406 9.79698 36.6414C9.67853 36.4422 9.61405 36.2156 9.60991 35.9839C9.60576 35.7521 9.66209 35.5233 9.77334 35.32L22.76 11.4C22.8742 11.1883 23.0436 11.0115 23.2502 10.8883C23.4568 10.765 23.6928 10.7 23.9333 10.7C24.1739 10.7 24.4099 10.765 24.6165 10.8883C24.823 11.0115 24.9924 11.1883 25.1067 11.4L38.0933 35.32C38.2039 35.5234 38.2595 35.7521 38.2549 35.9835C38.2502 36.215 38.1853 36.4412 38.0667 36.64Z"
        fill="black" />
</svg>